<?xml version="1.0" standalone="no"?>
<!DOCTYPE svg PUBLIC "-//W3C//DTD SVG 20010904//EN"
 "http://www.w3.org/TR/2001/REC-SVG-20010904/DTD/svg10.dtd">
<svg version="1.0" xmlns="http://www.w3.org/2000/svg"
 width="488.000000pt" height="336.000000pt" viewBox="0 0 488.000000 336.000000"
 preserveAspectRatio="xMidYMid meet">
<metadata>
Created by potrace 1.16, written by Peter Selinger 2001-2019
</metadata>
<g transform="translate(0.000000,336.000000) scale(0.100000,-0.100000)"
fill="#0D9488" stroke="none">
<path d="M3353 3319 c-98 -9 -205 -37 -328 -86 -185 -73 -328 -160 -635 -389
-573 -426 -868 -604 -1240 -749 -276 -108 -515 -172 -846 -230 -202 -35 -254
-50 -254 -75 0 -40 125 -86 495 -180 592 -150 931 -311 1194 -568 268 -263
347 -575 217 -857 -19 -42 -47 -90 -61 -107 -37 -44 -23 -47 29 -5 59 49 150
153 286 327 157 202 262 320 396 450 394 378 828 589 1477 719 356 72 523 138
643 256 87 85 109 140 102 244 -8 107 -43 165 -293 480 -296 374 -423 509
-586 618 -96 65 -159 96 -244 122 -60 18 -229 44 -260 40 -5 -1 -47 -5 -92
-10z m332 -39 c132 -42 246 -110 395 -236 42 -35 97 -88 122 -118 l47 -54 -67
46 c-93 63 -196 108 -299 133 -113 27 -311 30 -426 5 l-78 -17 -102 50 c-108
54 -202 81 -279 81 -27 0 -48 4 -48 9 0 17 252 104 360 125 14 2 88 3 165 1
112 -2 154 -7 210 -25z m-545 -149 c73 -24 192 -82 197 -97 1 -5 -37 -22 -85
-37 -112 -36 -251 -97 -369 -163 l-94 -51 -72 19 c-58 15 -98 19 -204 16 -73
-2 -129 -1 -125 3 4 3 27 21 52 40 72 57 298 210 380 257 l75 44 90 -5 c50 -3
119 -15 155 -26z m708 -87 c111 -23 215 -66 307 -126 81 -54 202 -167 265
-248 36 -45 34 -45 -35 1 -153 103 -429 160 -635 131 l-74 -11 -51 48 c-27 26
-86 76 -130 110 -44 35 -81 67 -83 71 -3 7 47 20 128 33 65 11 237 6 308 -9z
m-410 -71 c94 -67 213 -173 207 -184 -4 -5 -14 -9 -24 -9 -36 0 -197 -52 -345
-111 l-149 -59 -52 35 c-60 39 -226 125 -244 125 -33 0 5 24 157 98 129 63
348 150 381 152 2 0 33 -21 69 -47z m-713 -186 l50 -13 -89 -53 c-50 -29 -140
-85 -200 -124 -61 -38 -151 -95 -200 -124 l-90 -55 -95 12 c-53 6 -129 12
-170 13 l-73 2 88 60 c49 33 153 106 233 163 169 121 170 122 230 133 62 11
254 3 316 -14z m1394 -23 c212 -53 374 -163 445 -301 19 -38 15 -39 -45 -17
-60 21 -219 44 -304 44 -38 0 -113 -7 -165 -14 -52 -8 -98 -12 -101 -8 -3 4
-31 41 -61 82 -30 41 -87 110 -127 152 l-72 77 33 5 c111 19 274 11 397 -20z
m-1176 -60 c86 -44 160 -95 151 -104 -5 -4 -83 -47 -174 -95 -91 -48 -220
-119 -286 -157 l-121 -68 -100 49 c-54 28 -120 56 -146 63 -26 6 -47 15 -47
18 1 5 217 141 473 297 l101 61 48 -19 c27 -10 72 -31 101 -45z m804 -11 c91
-103 187 -222 181 -228 -2 -2 -58 -20 -123 -39 -95 -27 -264 -89 -362 -132 -6
-3 -25 15 -43 41 -46 67 -129 157 -193 212 -31 25 -54 50 -51 54 7 12 249 105
359 138 150 45 150 45 232 -46z m-489 -220 c122 -123 170 -191 142 -201 -31
-11 -370 -188 -475 -249 -60 -35 -111 -59 -113 -53 -14 42 -183 228 -248 272
-19 13 -34 25 -34 28 1 10 577 318 598 319 8 1 66 -52 130 -116z m1207 -27
c107 -30 115 -35 115 -72 0 -89 -68 -154 -220 -209 -80 -28 -331 -98 -336 -92
-2 2 1 21 7 43 18 61 5 162 -31 249 -18 42 -29 79 -26 82 27 27 393 26 491 -1z
m139 -12 c3 -8 2 -12 -4 -9 -6 3 -10 10 -10 16 0 14 7 11 14 -7z m-620 -69
c27 -63 30 -80 31 -177 0 -61 -4 -111 -10 -117 -6 -6 -67 -26 -136 -45 -68
-19 -181 -55 -249 -79 -69 -25 -126 -44 -128 -42 -3 2 1 27 8 56 21 85 5 170
-56 304 -9 21 430 177 485 172 20 -2 30 -15 55 -72z m-1856 49 c17 -4 32 -9
32 -13 0 -10 -133 -87 -290 -169 -375 -194 -899 -333 -1347 -357 l-98 -5 110
24 c276 59 558 150 810 263 90 41 348 181 412 225 23 15 52 33 65 38 23 10
240 5 306 -6z m2530 -59 c107 -122 108 -243 2 -338 -106 -95 -263 -157 -660
-261 -140 -37 -276 -73 -302 -81 -27 -7 -48 -10 -48 -6 0 4 33 30 73 57 99 67
226 196 262 267 26 50 35 59 70 68 344 88 448 132 505 210 16 23 32 61 36 85
3 24 10 44 14 44 5 0 26 -20 48 -45z m-2366 9 c92 -33 188 -81 188 -94 0 -13
-313 -165 -461 -224 -139 -55 -381 -119 -539 -141 -75 -10 -211 -17 -395 -20
-298 -5 -299 -4 -70 39 247 48 532 138 740 234 94 44 318 163 395 210 45 28
54 27 142 -4z m282 -153 c74 -59 150 -139 196 -205 40 -59 60 -38 -186 -186
-182 -108 -295 -170 -313 -170 -6 0 -50 40 -98 89 -114 115 -219 169 -368 189
-33 5 -53 11 -45 14 8 3 74 25 145 48 143 47 359 140 506 219 51 28 96 51 98
51 2 0 31 -22 65 -49z m884 -16 c31 -73 41 -208 20 -267 -12 -34 -24 -42 -198
-130 -229 -115 -362 -199 -522 -328 l-43 -35 31 37 c119 137 151 267 103 410
-11 33 -17 64 -12 68 38 36 560 311 581 307 8 -1 25 -29 40 -62z m1324 -12
c39 -83 44 -184 14 -245 -44 -91 -145 -172 -294 -237 -119 -52 -372 -112 -698
-166 -342 -56 -664 -163 -905 -301 -62 -35 -114 -62 -116 -60 -8 7 335 304
373 324 70 36 324 112 594 178 607 149 800 217 912 322 71 66 91 110 86 189
-2 35 -2 63 0 63 2 0 17 -30 34 -67z m-813 -190 c-34 -57 -154 -178 -239 -242
-104 -79 -119 -87 -186 -106 -54 -16 -311 -99 -343 -112 -7 -3 34 41 91 98 69
68 120 129 147 176 49 83 46 81 306 164 88 27 178 56 200 63 22 7 41 9 43 5 2
-5 -7 -26 -19 -46z m-1136 -110 c62 -174 19 -280 -214 -528 -80 -86 -150 -173
-204 -255 -81 -124 -178 -291 -190 -331 -4 -11 -9 -18 -11 -16 -3 2 8 38 24
78 124 316 144 551 62 727 -29 62 -31 82 -8 82 15 0 195 101 363 204 77 47
145 86 151 86 5 0 18 -21 27 -47z m-917 3 c40 -14 94 -38 120 -53 50 -27 204
-172 204 -191 0 -19 -136 -42 -247 -42 -144 1 -182 10 -255 60 -130 87 -267
141 -503 197 -21 5 7 9 90 15 66 4 165 17 220 27 138 27 274 22 371 -13z
m-673 -45 c141 -31 250 -67 347 -117 88 -44 170 -93 158 -94 -3 0 -138 33
-300 74 -329 83 -581 124 -826 133 -78 3 -140 8 -137 11 10 11 285 20 475 17
141 -3 208 -8 283 -24z m2193 -9 c-32 -62 -113 -157 -198 -232 -75 -66 -113
-91 -251 -159 -89 -44 -197 -103 -240 -132 -106 -71 -253 -212 -332 -320 -71
-96 -197 -315 -247 -429 -46 -105 -45 -78 2 41 56 140 166 350 255 484 79 119
185 251 200 249 6 -1 44 30 85 69 93 87 194 162 330 246 110 68 382 211 400
211 6 0 5 -11 -4 -28z m-2993 11 c-18 -2 -48 -2 -65 0 -18 2 -4 4 32 4 36 0
50 -2 33 -4z m297 -34 c218 -23 581 -182 821 -361 42 -31 80 -61 83 -67 4 -6
-49 19 -117 54 -188 99 -385 169 -707 254 -175 46 -297 68 -500 91 -101 12
-186 23 -189 25 -2 3 18 6 45 6 27 1 96 5 154 9 116 8 266 4 410 -11z m310
-34 c171 -29 286 -54 548 -123 185 -48 196 -53 249 -97 228 -187 347 -449 330
-728 -6 -97 -38 -241 -58 -261 -5 -6 -9 24 -9 80 0 155 -52 305 -153 440 -69
91 -320 330 -427 406 -147 104 -389 224 -575 283 -38 13 -65 23 -60 24 6 0 75
-10 155 -24z m-594 -30 c377 -52 521 -115 914 -400 83 -61 50 -23 -41 46 -95
72 -262 179 -336 216 -30 14 -52 27 -50 30 8 7 243 -68 367 -118 241 -97 416
-206 493 -307 89 -117 167 -308 208 -506 26 -128 23 -157 -7 -56 -47 159 -130
288 -278 427 -94 89 -282 230 -306 230 -8 0 -33 11 -55 25 -85 53 -308 146
-500 208 -55 17 -212 60 -350 95 -247 63 -419 117 -431 137 -9 14 161 2 372
-27z m1828 -185 c63 -139 69 -282 21 -464 -32 -118 -97 -315 -114 -341 -12
-19 -12 -19 -6 0 16 51 17 174 1 258 -39 203 -117 350 -268 500 -71 70 -83 86
-61 80 50 -14 274 -7 328 10 28 8 55 16 61 16 6 1 23 -26 38 -59z m1286 -109
c-251 -88 -402 -161 -606 -294 -283 -184 -499 -396 -798 -785 -112 -146 -151
-190 -126 -142 15 30 165 285 226 385 60 99 154 216 249 311 258 256 568 418
1040 543 162 43 168 36 15 -18z m-501 5 c-2 -2 -42 -36 -89 -76 -97 -83 -291
-263 -463 -430 -154 -149 -241 -270 -391 -542 -71 -129 -50 -75 46 123 152
309 255 468 393 604 108 107 208 178 370 262 102 53 152 75 134 59z m-1092
-430 c96 -142 136 -305 114 -462 -7 -47 -22 -117 -34 -156 l-22 -70 0 168 c-1
152 -3 180 -29 279 -33 130 -60 204 -110 302 -20 40 -36 76 -36 80 1 13 67
-67 117 -141z"/>
<path d="M2568 1263 c-65 -80 -194 -271 -161 -238 5 6 37 51 71 100 33 50 81
114 106 143 25 30 46 56 46 58 0 11 -12 -1 -62 -63z"/>
<path d="M2370 970 c-6 -11 -8 -20 -6 -20 3 0 10 9 16 20 6 11 8 20 6 20 -3 0
-10 -9 -16 -20z"/>
</g>
</svg>
